<svg width="60" height="57" viewBox="0 0 60 57" fill="none" xmlns="http://www.w3.org/2000/svg">
<path d="M1.66669 2.97921C1.66669 2.20831 2.30095 1.58337 3.08335 1.58337H27.1667C27.9491 1.58337 28.5834 2.20831 28.5834 2.97921V14.1459C28.5834 14.9168 27.9491 15.5417 27.1667 15.5417H3.08335C2.30095 15.5417 1.66669 14.9168 1.66669 14.1459V2.97921Z" fill="#F93A51"/>
<path fill-rule="evenodd" clip-rule="evenodd" d="M3.08333 0.1875H27.1667C28.7315 0.1875 30 1.43737 30 2.97917V14.1458C30 15.6876 28.7315 16.9375 27.1667 16.9375H3.08333C1.51853 16.9375 0.25 15.6876 0.25 14.1458V2.97917C0.25 1.43737 1.51853 0.1875 3.08333 0.1875ZM3.08333 1.58333C2.30093 1.58333 1.66667 2.20827 1.66667 2.97917V14.1458C1.66667 14.9167 2.30093 15.5417 3.08333 15.5417H27.1667C27.9491 15.5417 28.5833 14.9167 28.5833 14.1458V2.97917C28.5833 2.20827 27.9491 1.58333 27.1667 1.58333H3.08333Z" fill="#BB073D"/>
<path d="M1.66669 9.95837H28.5834V14.1459C28.5834 14.9168 27.9491 15.5417 27.1667 15.5417H3.08335C2.30095 15.5417 1.66669 14.9168 1.66669 14.1459V9.95837Z" fill="#E52E44"/>
<path d="M22.0368 4.35315C21.3179 4.35315 20.6689 4.5221 20.1014 4.86905L20.1004 4.86965C19.5358 5.21731 19.1062 5.71106 18.8104 6.33794C18.5156 6.96264 18.3734 7.67421 18.3734 8.46432L18.3733 9.20585L18.3734 9.21106C18.3851 9.982 18.5314 10.6744 18.8225 11.28C19.1146 11.8876 19.5344 12.3675 20.083 12.7073L20.0856 12.7089C20.6384 13.0447 21.2705 13.208 21.9704 13.208C22.9518 13.208 23.7774 12.9543 24.4103 12.4139L24.4114 12.413C25.0448 11.8679 25.3947 11.1175 25.4828 10.1983C25.4922 10.1005 25.4593 10.0033 25.3921 9.93062C25.325 9.85795 25.2299 9.81653 25.1302 9.81653H23.7357C23.5575 9.81653 23.407 9.94697 23.3844 10.1211C23.3156 10.6496 23.1598 10.9576 22.974 11.1211C22.7874 11.2854 22.474 11.3977 21.9704 11.3977C21.4746 11.3977 21.1319 11.2203 20.8907 10.8741C20.6376 10.5056 20.4873 9.93222 20.4873 9.10771V8.4058C20.4946 7.59458 20.6547 7.03832 20.9166 6.68626C21.1709 6.34564 21.5279 6.16882 22.0368 6.16882C22.5065 6.16882 22.8007 6.28272 22.9814 6.45343L22.985 6.45676C23.17 6.6267 23.3219 6.94128 23.3838 7.47355C23.4043 7.64974 23.5557 7.78276 23.7357 7.78276H25.1302C25.2303 7.78276 25.3257 7.74103 25.3929 7.6679C25.46 7.59476 25.4926 7.49705 25.4826 7.39893C25.3872 6.4633 25.042 5.70237 24.4195 5.15586C23.7986 4.61066 22.9924 4.35315 22.0368 4.35315Z" fill="#FFFCB0"/>
<path fill-rule="evenodd" clip-rule="evenodd" d="M5.50163 4.4622C5.30603 4.4622 5.14746 4.61843 5.14746 4.81116V12.75C5.14746 12.9427 5.30603 13.0989 5.50163 13.0989H6.90169C7.09729 13.0989 7.25586 12.9427 7.25586 12.75V10.0401H8.24731L9.76397 12.9111C9.82495 13.0265 9.94605 13.0989 10.0781 13.0989H11.5778C11.7734 13.0989 11.932 12.9427 11.932 12.75V12.6791C11.932 12.6213 11.9174 12.5644 11.8896 12.5136L10.2545 9.52305C10.6127 9.32389 10.9105 9.06685 11.1407 8.74947C11.4538 8.31932 11.5999 7.7991 11.5999 7.21025C11.5999 6.35175 11.3168 5.6488 10.713 5.15809C10.1222 4.67793 9.31303 4.4622 8.33496 4.4622H5.50163ZM7.25586 8.23531V6.27242H8.37646C8.81087 6.27931 9.07344 6.38582 9.22838 6.53385L9.2303 6.53566C9.39017 6.68613 9.49154 6.91369 9.49154 7.27022C9.49154 7.59479 9.38978 7.81582 9.21097 7.97537C9.02898 8.13425 8.75421 8.23531 8.34049 8.23531H7.25586Z" fill="#FFFCB0"/>
<path d="M12.5739 4.4622C12.3783 4.4622 12.2197 4.61843 12.2197 4.81116V12.75C12.2197 12.9427 12.3783 13.0989 12.5739 13.0989H17.8421C18.0377 13.0989 18.1963 12.9427 18.1963 12.75V11.6486C18.1963 11.4558 18.0377 11.2996 17.8421 11.2996H14.3281V9.55481H17.2832C17.4788 9.55481 17.6374 9.39858 17.6374 9.20585V8.11536C17.6374 7.92263 17.4788 7.7664 17.2832 7.7664H14.3281V6.27242H17.8034C17.999 6.27242 18.1576 6.11619 18.1576 5.92346V4.81116C18.1576 4.61843 17.999 4.4622 17.8034 4.4622H12.5739Z" fill="#FFFCB0"/>
<path fill-rule="evenodd" clip-rule="evenodd" d="M2.375 2.97917C2.375 2.59372 2.69213 2.28125 3.08333 2.28125H5.91667C6.30787 2.28125 6.625 2.59372 6.625 2.97917C6.625 3.36462 6.30787 3.67708 5.91667 3.67708H3.08333C2.69213 3.67708 2.375 3.36462 2.375 2.97917Z" fill="#F88693"/>
<path d="M58.3333 50.068C58.3333 49.1157 51.9907 48.3438 44.1667 48.3438C36.3426 48.3438 30 49.1157 30 50.068V52.9008C30 53.853 36.3426 54.625 44.1667 54.625C51.9907 54.625 58.3333 53.853 58.3333 52.9008V50.068Z" fill="#474343"/>
<path fill-rule="evenodd" clip-rule="evenodd" d="M58.7776 48.5255C59.0195 48.6693 59.75 49.1468 59.75 50.0679V52.9007C59.75 53.8219 59.0195 54.2994 58.7776 54.4432C58.434 54.6476 58.0192 54.7961 57.6172 54.9117C56.7917 55.1493 55.6665 55.346 54.3577 55.5053C51.7203 55.8262 48.1179 56.0208 44.1666 56.0208C40.2154 56.0208 36.613 55.8262 33.9756 55.5053C32.6668 55.346 31.5416 55.1493 30.7161 54.9117C30.3141 54.7961 29.8993 54.6476 29.5557 54.4432C29.3138 54.2994 28.5833 53.8219 28.5833 52.9007V50.0679C28.5833 49.1468 29.3138 48.6693 29.5557 48.5255C29.8993 48.3211 30.3141 48.1726 30.7161 48.0569C31.5416 47.8194 32.6668 47.6227 33.9756 47.4634C36.613 47.1424 40.2154 46.9479 44.1666 46.9479C48.1179 46.9479 51.7203 47.1424 54.3577 47.4634C55.6665 47.6227 56.7917 47.8194 57.6172 48.0569C58.0192 48.1726 58.434 48.3211 58.7776 48.5255ZM44.1666 48.3437C51.9907 48.3437 58.3333 49.1157 58.3333 50.0679V52.9007C58.3333 53.853 51.9907 54.625 44.1666 54.625C36.3426 54.625 30 53.853 30 52.9007V50.0679C30 49.1157 36.3426 48.3437 44.1666 48.3437Z" fill="black"/>
<path d="M58.3333 52.9008V50.7659C57.272 51.6148 53.9631 52.1171 50.5416 52.3613V54.4409C55.1636 54.157 58.3333 53.5739 58.3333 52.9008Z" fill="#2A2828"/>
<path d="M58.3333 50.0885C58.3333 51.0522 51.9907 51.8333 44.1667 51.8333C36.3426 51.8333 30 51.0522 30 50.0885C30 49.1249 36.3426 48.3438 44.1667 48.3438C51.9907 48.3438 58.3333 49.1249 58.3333 50.0885Z" fill="#525252"/>
<path fill-rule="evenodd" clip-rule="evenodd" d="M57.1569 50.7858C57.1188 50.7965 57.0799 50.8072 57.0401 50.8178C54.7978 51.4172 49.8767 51.8333 44.1666 51.8333C38.4566 51.8333 33.5355 51.4172 31.2932 50.8178C31.2534 50.8072 31.2145 50.7965 31.1764 50.7858C30.4197 50.5722 30 50.3364 30 50.0885C30 49.8406 30.4197 49.6048 31.1764 49.3912C31.2145 49.3805 31.2534 49.3698 31.2932 49.3592C33.5355 48.7598 38.4566 48.3437 44.1666 48.3437C49.8767 48.3437 54.7978 48.7598 57.0401 49.3592C57.0799 49.3698 57.1188 49.3805 57.1569 49.3912C57.9136 49.6048 58.3333 49.8406 58.3333 50.0885C58.3333 50.3364 57.9136 50.5722 57.1569 50.7858ZM57.307 49.249C57.3051 49.2501 57.3029 49.2514 57.3003 49.2528C57.3313 49.23 57.3398 49.2292 57.307 49.249ZM31.0263 49.249C30.9935 49.2292 31.002 49.23 31.033 49.2529C31.0304 49.2514 31.0282 49.2501 31.0263 49.249ZM31.0263 50.928C31.0282 50.9269 31.0304 50.9256 31.033 50.9241C31.002 50.947 30.9935 50.9478 31.0263 50.928ZM57.307 50.928C57.3398 50.9478 57.3313 50.947 57.3003 50.9242C57.3029 50.9256 57.3051 50.9269 57.307 50.928ZM54.3597 52.7073C51.7215 53.0322 48.1184 53.2291 44.1666 53.2291C40.2149 53.2291 36.6118 53.0322 33.9736 52.7073C32.6644 52.5461 31.5383 52.3469 30.7118 52.1063C30.3091 51.989 29.8935 51.8385 29.5493 51.6313C29.3021 51.4825 28.5833 51.003 28.5833 50.0885C28.5833 49.174 29.3021 48.6945 29.5493 48.5457C29.8935 48.3385 30.3091 48.188 30.7118 48.0707C31.5383 47.8301 32.6644 47.6309 33.9736 47.4697C36.6118 47.1448 40.2149 46.9479 44.1666 46.9479C48.1184 46.9479 51.7215 47.1448 54.3597 47.4697C55.6689 47.6309 56.795 47.8301 57.6215 48.0707C58.0242 48.188 58.4398 48.3385 58.784 48.5457C59.0312 48.6945 59.75 49.174 59.75 50.0885C59.75 51.003 59.0312 51.4825 58.784 51.6313C58.4398 51.8385 58.0242 51.989 57.6215 52.1063C56.795 52.3469 55.6689 52.5461 54.3597 52.7073Z" fill="black"/>
<path fill-rule="evenodd" clip-rule="evenodd" d="M32.486 53.1607C32.5244 52.9717 32.711 52.8492 32.9028 52.887C33.7629 53.0565 35.5997 53.2298 37.3754 53.361C39.1474 53.4919 40.8172 53.5781 41.3333 53.5781C41.5289 53.5781 41.6875 53.7343 41.6875 53.9271C41.6875 54.1198 41.5289 54.276 41.3333 54.276C40.787 54.276 39.0921 54.1877 37.3224 54.0569C35.5564 53.9264 33.6745 53.7508 32.7638 53.5713C32.572 53.5335 32.4477 53.3497 32.486 53.1607Z" fill="#6A6565"/>
<path fill-rule="evenodd" clip-rule="evenodd" d="M32.125 14.8438C32.5162 14.8438 32.8333 15.1562 32.8333 15.5417V36.4792C32.8333 39.1773 35.0532 41.3646 37.7916 41.3646H50.5416C53.28 41.3646 55.5 39.1773 55.5 36.4792V15.5417C55.5 15.1562 55.8171 14.8438 56.2083 14.8438C56.5995 14.8438 56.9166 15.1562 56.9166 15.5417V36.4792C56.9166 39.9482 54.0624 42.7604 50.5416 42.7604H37.7916C34.2708 42.7604 31.4166 39.9482 31.4166 36.4792V15.5417C31.4166 15.1562 31.7338 14.8438 32.125 14.8438Z" fill="black"/>
<path d="M42.75 39.9688H45.5833L47.7083 49.7396H40.625L42.75 39.9688Z" fill="#3E3B3B"/>
<path fill-rule="evenodd" clip-rule="evenodd" d="M41.3648 39.6762C41.5047 39.0327 42.082 38.5729 42.75 38.5729H45.5833C46.2513 38.5729 46.8286 39.0327 46.9685 39.6762L49.0935 49.4471C49.1832 49.8592 49.079 50.2893 48.81 50.6171C48.5411 50.9449 48.1362 51.1354 47.7083 51.1354H40.625C40.1972 51.1354 39.7923 50.9449 39.5233 50.6171C39.2543 50.2893 39.1501 49.8592 39.2398 49.4471L41.3648 39.6762ZM42.75 39.9687H45.5833L47.7083 49.7395H40.625L42.75 39.9687Z" fill="black"/>
<path d="M42.75 39.9688H43.4583L42.75 49.7396H40.625L42.75 39.9688Z" fill="#575454"/>
<path d="M44.875 39.9688H45.5833L47.7083 49.7396H45.5833L44.875 39.9688Z" fill="#212020"/>
<path d="M34.9583 7.16667C34.9583 5.62487 36.2268 4.375 37.7916 4.375H50.5416C52.1065 4.375 53.375 5.62487 53.375 7.16667V33.6875C53.375 35.2293 52.1065 36.4792 50.5416 36.4792H37.7916C36.2268 36.4792 34.9583 35.2293 34.9583 33.6875V7.16667Z" fill="#525252"/>
<path fill-rule="evenodd" clip-rule="evenodd" d="M37.7916 2.97913H50.5416C52.8888 2.97913 54.7916 4.85393 54.7916 7.16663V33.6875C54.7916 36.0001 52.8888 37.875 50.5416 37.875H37.7916C35.4444 37.875 33.5416 36.0001 33.5416 33.6875V7.16663C33.5416 4.85393 35.4444 2.97913 37.7916 2.97913ZM37.7916 4.37496C36.2268 4.37496 34.9583 5.62483 34.9583 7.16663V33.6875C34.9583 35.2293 36.2268 36.4791 37.7916 36.4791H50.5416C52.1064 36.4791 53.375 35.2293 53.375 33.6875V7.16663C53.375 5.62483 52.1064 4.37496 50.5416 4.37496H37.7916Z" fill="black"/>
<path fill-rule="evenodd" clip-rule="evenodd" d="M51.9583 6.46875C52.3495 6.46875 52.6667 6.78122 52.6667 7.16667V26.7083H51.25V7.16667C51.25 6.78122 51.5671 6.46875 51.9583 6.46875Z" fill="#757575"/>
<path fill-rule="evenodd" clip-rule="evenodd" d="M36.375 6.46875C36.7662 6.46875 37.0833 6.78122 37.0833 7.16667V26.7083H35.6666V7.16667C35.6666 6.78122 35.9838 6.46875 36.375 6.46875Z" fill="#9D9D9D"/>
<path d="M34.9583 26.7083H53.375V33.6874C53.375 35.2292 52.1065 36.4791 50.5416 36.4791H37.7916C36.2268 36.4791 34.9583 35.2292 34.9583 33.6874V26.7083Z" fill="#312E2E"/>
<path fill-rule="evenodd" clip-rule="evenodd" d="M35.6666 33.6874V26.7083H37.0833V33.6874C37.0833 34.0729 36.7662 34.3853 36.375 34.3853C35.9838 34.3853 35.6666 34.0729 35.6666 33.6874Z" fill="#535353"/>
<path fill-rule="evenodd" clip-rule="evenodd" d="M51.25 33.6874V26.7083H52.6667V33.6874C52.6667 34.0729 52.3495 34.3853 51.9583 34.3853C51.5671 34.3853 51.25 34.0729 51.25 33.6874Z" fill="#535353"/>
<path d="M51.9583 6.46883C51.9583 6.08338 51.6412 5.77091 51.25 5.77091C50.8588 5.77091 50.5416 6.08338 50.5416 6.46883C50.5416 6.85428 50.8588 7.16675 51.25 7.16675C51.6412 7.16675 51.9583 6.85428 51.9583 6.46883Z" fill="#353535"/>
<path d="M51.9583 9.26046C51.9583 8.87501 51.6412 8.56254 51.25 8.56254C50.8588 8.56254 50.5416 8.87501 50.5416 9.26046C50.5416 9.64591 50.8588 9.95837 51.25 9.95837C51.6412 9.95837 51.9583 9.64591 51.9583 9.26046Z" fill="#353535"/>
<path d="M49.125 9.26046C49.125 8.87501 48.8078 8.56254 48.4166 8.56254C48.0254 8.56254 47.7083 8.87501 47.7083 9.26046C47.7083 9.64591 48.0254 9.95837 48.4166 9.95837C48.8078 9.95837 49.125 9.64591 49.125 9.26046Z" fill="#353535"/>
<path d="M50.5416 7.86458C50.5416 7.47913 50.2245 7.16667 49.8333 7.16667C49.4421 7.16667 49.1249 7.47913 49.1249 7.86458C49.1249 8.25003 49.4421 8.5625 49.8333 8.5625C50.2245 8.5625 50.5416 8.25003 50.5416 7.86458Z" fill="#353535"/>
<path d="M47.7083 7.86458C47.7083 7.47913 47.3912 7.16667 47 7.16667C46.6088 7.16667 46.2916 7.47913 46.2916 7.86458C46.2916 8.25003 46.6088 8.5625 47 8.5625C47.3912 8.5625 47.7083 8.25003 47.7083 7.86458Z" fill="#353535"/>
<path d="M49.125 6.46883C49.125 6.08338 48.8078 5.77091 48.4166 5.77091C48.0254 5.77091 47.7083 6.08338 47.7083 6.46883C47.7083 6.85428 48.0254 7.16675 48.4166 7.16675C48.8078 7.16675 49.125 6.85428 49.125 6.46883Z" fill="#353535"/>
<path d="M50.5416 10.6562C50.5416 10.2708 50.2245 9.95829 49.8333 9.95829C49.4421 9.95829 49.1249 10.2708 49.1249 10.6562C49.1249 11.0417 49.4421 11.3541 49.8333 11.3541C50.2245 11.3541 50.5416 11.0417 50.5416 10.6562Z" fill="#353535"/>
<path d="M50.5416 13.4478C50.5416 13.0624 50.2245 12.7499 49.8333 12.7499C49.4421 12.7499 49.1249 13.0624 49.1249 13.4478C49.1249 13.8333 49.4421 14.1458 49.8333 14.1458C50.2245 14.1458 50.5416 13.8333 50.5416 13.4478Z" fill="#353535"/>
<path d="M47.7083 13.4478C47.7083 13.0624 47.3912 12.7499 47 12.7499C46.6088 12.7499 46.2916 13.0624 46.2916 13.4478C46.2916 13.8333 46.6088 14.1458 47 14.1458C47.3912 14.1458 47.7083 13.8333 47.7083 13.4478Z" fill="#353535"/>
<path d="M49.1249 12.0521C49.1249 11.6666 48.8078 11.3542 48.4166 11.3542C48.0254 11.3542 47.7083 11.6666 47.7083 12.0521C47.7083 12.4375 48.0254 12.75 48.4166 12.75C48.8078 12.75 49.1249 12.4375 49.1249 12.0521Z" fill="#353535"/>
<path d="M51.9583 12.0521C51.9583 11.6666 51.6412 11.3542 51.25 11.3542C50.8588 11.3542 50.5416 11.6666 50.5416 12.0521C50.5416 12.4375 50.8588 12.75 51.25 12.75C51.6412 12.75 51.9583 12.4375 51.9583 12.0521Z" fill="#353535"/>
<path d="M51.9583 14.8437C51.9583 14.4583 51.6412 14.1458 51.25 14.1458C50.8588 14.1458 50.5416 14.4583 50.5416 14.8437C50.5416 15.2292 50.8588 15.5416 51.25 15.5416C51.6412 15.5416 51.9583 15.2292 51.9583 14.8437Z" fill="#353535"/>
<path d="M49.1249 14.8437C49.1249 14.4583 48.8078 14.1458 48.4166 14.1458C48.0254 14.1458 47.7083 14.4583 47.7083 14.8437C47.7083 15.2292 48.0254 15.5416 48.4166 15.5416C48.8078 15.5416 49.1249 15.2292 49.1249 14.8437Z" fill="#353535"/>
<path d="M46.2916 12.0521C46.2916 11.6666 45.9745 11.3542 45.5833 11.3542C45.1921 11.3542 44.8749 11.6666 44.8749 12.0521C44.8749 12.4375 45.1921 12.75 45.5833 12.75C45.9745 12.75 46.2916 12.4375 46.2916 12.0521Z" fill="#353535"/>
<path d="M47.7083 10.6562C47.7083 10.2708 47.3912 9.95829 47 9.95829C46.6088 9.95829 46.2916 10.2708 46.2916 10.6562C46.2916 11.0417 46.6088 11.3541 47 11.3541C47.3912 11.3541 47.7083 11.0417 47.7083 10.6562Z" fill="#353535"/>
<path d="M46.2916 6.46883C46.2916 6.08338 45.9745 5.77091 45.5833 5.77091C45.1921 5.77091 44.8749 6.08338 44.8749 6.46883C44.8749 6.85428 45.1921 7.16675 45.5833 7.16675C45.9745 7.16675 46.2916 6.85428 46.2916 6.46883Z" fill="#353535"/>
<path d="M46.2916 9.26046C46.2916 8.87501 45.9745 8.56254 45.5833 8.56254C45.1921 8.56254 44.8749 8.87501 44.8749 9.26046C44.8749 9.64591 45.1921 9.95837 45.5833 9.95837C45.9745 9.95837 46.2916 9.64591 46.2916 9.26046Z" fill="#353535"/>
<path d="M43.4583 9.26046C43.4583 8.87501 43.1412 8.56254 42.75 8.56254C42.3588 8.56254 42.0416 8.87501 42.0416 9.26046C42.0416 9.64591 42.3588 9.95837 42.75 9.95837C43.1412 9.95837 43.4583 9.64591 43.4583 9.26046Z" fill="#353535"/>
<path d="M44.8749 7.86458C44.8749 7.47913 44.5578 7.16667 44.1666 7.16667C43.7754 7.16667 43.4583 7.47913 43.4583 7.86458C43.4583 8.25003 43.7754 8.5625 44.1666 8.5625C44.5578 8.5625 44.8749 8.25003 44.8749 7.86458Z" fill="#353535"/>
<path d="M42.0416 7.86458C42.0416 7.47913 41.7245 7.16667 41.3333 7.16667C40.9421 7.16667 40.6249 7.47913 40.6249 7.86458C40.6249 8.25003 40.9421 8.5625 41.3333 8.5625C41.7245 8.5625 42.0416 8.25003 42.0416 7.86458Z" fill="#353535"/>
<path d="M43.4583 6.46883C43.4583 6.08338 43.1412 5.77091 42.75 5.77091C42.3588 5.77091 42.0416 6.08338 42.0416 6.46883C42.0416 6.85428 42.3588 7.16675 42.75 7.16675C43.1412 7.16675 43.4583 6.85428 43.4583 6.46883Z" fill="#353535"/>
<path d="M44.875 10.6562C44.875 10.2708 44.5578 9.95829 44.1666 9.95829C43.7754 9.95829 43.4583 10.2708 43.4583 10.6562C43.4583 11.0417 43.7754 11.3541 44.1666 11.3541C44.5578 11.3541 44.875 11.0417 44.875 10.6562Z" fill="#353535"/>
<path d="M44.875 13.448C44.875 13.0625 44.5578 12.75 44.1666 12.75C43.7754 12.75 43.4583 13.0625 43.4583 13.448C43.4583 13.8334 43.7754 14.1459 44.1666 14.1459C44.5578 14.1459 44.875 13.8334 44.875 13.448Z" fill="#353535"/>
<path d="M42.0416 13.448C42.0416 13.0625 41.7245 12.75 41.3333 12.75C40.9421 12.75 40.6249 13.0625 40.6249 13.448C40.6249 13.8334 40.9421 14.1459 41.3333 14.1459C41.7245 14.1459 42.0416 13.8334 42.0416 13.448Z" fill="#353535"/>
<path d="M43.4583 12.0521C43.4583 11.6666 43.1412 11.3542 42.75 11.3542C42.3588 11.3542 42.0416 11.6666 42.0416 12.0521C42.0416 12.4375 42.3588 12.75 42.75 12.75C43.1412 12.75 43.4583 12.4375 43.4583 12.0521Z" fill="#353535"/>
<path d="M40.625 6.46871C40.625 6.08326 40.3078 5.77079 39.9166 5.77079C39.5254 5.77079 39.2083 6.08326 39.2083 6.46871C39.2083 6.85416 39.5254 7.16663 39.9166 7.16663C40.3078 7.16663 40.625 6.85416 40.625 6.46871Z" fill="#353535"/>
<path d="M39.2083 7.86458C39.2083 7.47913 38.8912 7.16667 38.5 7.16667C38.1088 7.16667 37.7916 7.47913 37.7916 7.86458C37.7916 8.25003 38.1088 8.5625 38.5 8.5625C38.8912 8.5625 39.2083 8.25003 39.2083 7.86458Z" fill="#353535"/>
<path d="M40.625 9.26046C40.625 8.87501 40.3078 8.56254 39.9166 8.56254C39.5254 8.56254 39.2083 8.87501 39.2083 9.26046C39.2083 9.64591 39.5254 9.95837 39.9166 9.95837C40.3078 9.95837 40.625 9.64591 40.625 9.26046Z" fill="#353535"/>
<path d="M46.2916 14.8437C46.2916 14.4583 45.9745 14.1458 45.5833 14.1458C45.1921 14.1458 44.8749 14.4583 44.8749 14.8437C44.8749 15.2292 45.1921 15.5416 45.5833 15.5416C45.9745 15.5416 46.2916 15.2292 46.2916 14.8437Z" fill="#353535"/>
<path d="M47.7083 16.2396C47.7083 15.8541 47.3912 15.5417 47 15.5417C46.6088 15.5417 46.2916 15.8541 46.2916 16.2396C46.2916 16.625 46.6088 16.9375 47 16.9375C47.3912 16.9375 47.7083 16.625 47.7083 16.2396Z" fill="#353535"/>
<path d="M50.5416 16.2396C50.5416 15.8541 50.2245 15.5417 49.8333 15.5417C49.4421 15.5417 49.1249 15.8541 49.1249 16.2396C49.1249 16.625 49.4421 16.9375 49.8333 16.9375C50.2245 16.9375 50.5416 16.625 50.5416 16.2396Z" fill="#353535"/>
<path d="M51.9583 17.6355C51.9583 17.25 51.6412 16.9375 51.25 16.9375C50.8588 16.9375 50.5416 17.25 50.5416 17.6355C50.5416 18.0209 50.8588 18.3334 51.25 18.3334C51.6412 18.3334 51.9583 18.0209 51.9583 17.6355Z" fill="#353535"/>
<path d="M49.125 17.6355C49.125 17.25 48.8078 16.9375 48.4166 16.9375C48.0254 16.9375 47.7083 17.25 47.7083 17.6355C47.7083 18.0209 48.0254 18.3334 48.4166 18.3334C48.8078 18.3334 49.125 18.0209 49.125 17.6355Z" fill="#353535"/>
<path d="M46.2916 17.6355C46.2916 17.25 45.9745 16.9375 45.5833 16.9375C45.1921 16.9375 44.8749 17.25 44.8749 17.6355C44.8749 18.0209 45.1921 18.3334 45.5833 18.3334C45.9745 18.3334 46.2916 18.0209 46.2916 17.6355Z" fill="#353535"/>
<path d="M50.5416 19.0312C50.5416 18.6458 50.2245 18.3333 49.8333 18.3333C49.4421 18.3333 49.1249 18.6458 49.1249 19.0312C49.1249 19.4167 49.4421 19.7291 49.8333 19.7291C50.2245 19.7291 50.5416 19.4167 50.5416 19.0312Z" fill="#353535"/>
<path d="M51.9583 20.4271C51.9583 20.0416 51.6412 19.7292 51.25 19.7292C50.8588 19.7292 50.5416 20.0416 50.5416 20.4271C50.5416 20.8125 50.8588 21.125 51.25 21.125C51.6412 21.125 51.9583 20.8125 51.9583 20.4271Z" fill="#353535"/>
<path d="M40.625 12.0521C40.625 11.6666 40.3078 11.3542 39.9166 11.3542C39.5254 11.3542 39.2083 11.6666 39.2083 12.0521C39.2083 12.4375 39.5254 12.75 39.9166 12.75C40.3078 12.75 40.625 12.4375 40.625 12.0521Z" fill="#353535"/>
<path d="M42.0416 10.6562C42.0416 10.2708 41.7245 9.95829 41.3333 9.95829C40.9421 9.95829 40.6249 10.2708 40.6249 10.6562C40.6249 11.0417 40.9421 11.3541 41.3333 11.3541C41.7245 11.3541 42.0416 11.0417 42.0416 10.6562Z" fill="#353535"/>
<path d="M46.2916 31.5937C46.2916 32.7501 45.3402 33.6875 44.1666 33.6875C42.993 33.6875 42.0416 32.7501 42.0416 31.5937C42.0416 30.4374 42.993 29.5 44.1666 29.5C45.3402 29.5 46.2916 30.4374 46.2916 31.5937Z" fill="#F93A51"/>
<path fill-rule="evenodd" clip-rule="evenodd" d="M47.7083 31.5937C47.7083 33.521 46.1227 35.0833 44.1667 35.0833C42.2107 35.0833 40.625 33.521 40.625 31.5937C40.625 29.6665 42.2107 28.1041 44.1667 28.1041C46.1227 28.1041 47.7083 29.6665 47.7083 31.5937ZM44.1667 33.6875C45.3403 33.6875 46.2917 32.7501 46.2917 31.5937C46.2917 30.4374 45.3403 29.5 44.1667 29.5C42.9931 29.5 42.0417 30.4374 42.0417 31.5937C42.0417 32.7501 42.9931 33.6875 44.1667 33.6875Z" fill="#191919"/>
<path d="M44.1667 30.8958C44.1667 31.2812 43.8495 31.5937 43.4583 31.5937C43.0671 31.5937 42.75 31.2812 42.75 30.8958C42.75 30.5103 43.0671 30.1979 43.4583 30.1979C43.8495 30.1979 44.1667 30.5103 44.1667 30.8958Z" fill="#FFFCB0"/>
<path d="M32.125 18.6823C32.125 18.1041 32.6007 17.6354 33.1875 17.6354C33.7743 17.6354 34.25 18.1041 34.25 18.6823V22.1718C34.25 22.75 33.7743 23.2187 33.1875 23.2187C32.6007 23.2187 32.125 22.75 32.125 22.1718V18.6823Z" fill="black"/>
<path d="M54.0833 18.6823C54.0833 18.1041 54.559 17.6354 55.1458 17.6354C55.7326 17.6354 56.2083 18.1041 56.2083 18.6823V22.1718C56.2083 22.75 55.7326 23.2187 55.1458 23.2187C54.559 23.2187 54.0833 22.75 54.0833 22.1718V18.6823Z" fill="black"/>
</svg>
