<svg width="24" height="28" viewBox="0 0 24 28" fill="none" xmlns="http://www.w3.org/2000/svg">
<path d="M4.91669 7.33333C4.91669 3.42132 8.088 0.25 12 0.25C15.912 0.25 19.0834 3.42132 19.0834 7.33333C19.0834 11.2454 15.912 14.4167 12 14.4167C8.088 14.4167 4.91669 11.2454 4.91669 7.33333ZM12 11.5833C14.3472 11.5833 16.25 9.68054 16.25 7.33333C16.25 4.98612 14.3472 3.08333 12 3.08333C9.65281 3.08333 7.75002 4.98612 7.75002 7.33333C7.75002 9.68054 9.65281 11.5833 12 11.5833Z" fill="#F2F2F2"/>
<path d="M3.98614 19.1528C1.86073 21.2782 0.666687 24.1609 0.666687 27.1667H3.50002C3.50002 24.9123 4.39555 22.7503 5.98961 21.1563C7.58367 19.5622 9.74568 18.6667 12 18.6667C14.2544 18.6667 16.4164 19.5622 18.0104 21.1563C19.6045 22.7503 20.5 24.9123 20.5 27.1667H23.3334C23.3334 24.1609 22.1393 21.2782 20.0139 19.1528C17.8885 17.0274 15.0058 15.8333 12 15.8333C8.99423 15.8333 6.11156 17.0274 3.98614 19.1528Z" fill="#F2F2F2"/>
</svg>
