<svg width="32" height="32" viewBox="0 0 32 32" fill="none" xmlns="http://www.w3.org/2000/svg">
<path d="M18.8817 31.8333H13.1183C12.3744 31.8333 11.7306 31.3155 11.5714 30.5888L10.927 27.6058C10.0673 27.2291 9.2522 26.7581 8.4966 26.2014L5.58801 27.1276C4.87868 27.3538 4.10758 27.0553 3.73551 26.4104L0.847513 21.4213C0.479527 20.7761 0.606306 19.9622 1.1531 19.4595L3.40935 17.4012C3.30674 16.4688 3.30674 15.528 3.40935 14.5955L1.1531 12.542C0.605501 12.039 0.478672 11.2242 0.847513 10.5786L3.72918 5.58638C4.10124 4.94148 4.87235 4.64293 5.58168 4.86913L8.49026 5.79538C8.8767 5.50904 9.27897 5.24473 9.69518 5.00371C10.0947 4.77839 10.5059 4.57438 10.927 4.39254L11.573 1.41271C11.7315 0.68591 12.3745 0.167409 13.1183 0.166626H18.8817C19.6255 0.167409 20.2686 0.68591 20.427 1.41271L21.0793 4.39413C21.5239 4.58969 21.9569 4.81067 22.3761 5.05596C22.7671 5.28208 23.145 5.53 23.5082 5.79854L26.4183 4.87229C27.1272 4.64694 27.8974 4.94538 28.2693 5.58954L31.1509 10.5818C31.5189 11.227 31.3921 12.0409 30.8453 12.5435L28.5891 14.6019C28.6917 15.5343 28.6917 16.4751 28.5891 17.4075L30.8453 19.4659C31.3921 19.9686 31.5189 20.7824 31.1509 21.4276L28.2693 26.4199C27.8974 27.064 27.1272 27.3625 26.4183 27.1371L23.5082 26.2109C23.1399 26.4821 22.7573 26.7332 22.3618 26.963C21.9467 27.2035 21.5186 27.4207 21.0793 27.6137L20.427 30.5888C20.2679 31.315 19.6251 31.8327 18.8817 31.8333ZM9.06501 22.6959L10.3633 23.6459C10.656 23.8615 10.9611 24.0597 11.2769 24.2396C11.5741 24.4117 11.8801 24.5682 12.1937 24.7083L13.6709 25.3559L14.3945 28.6666H17.6087L18.3323 25.3543L19.8095 24.7067C20.4544 24.4223 21.0665 24.0687 21.6351 23.6522L22.935 22.7022L26.1666 23.7314L27.7737 20.9479L25.2673 18.6631L25.4446 17.0608C25.5225 16.36 25.5225 15.6526 25.4446 14.9518L25.2673 13.3495L27.7753 11.06L26.1666 8.27488L22.935 9.30404L21.6351 8.35404C21.0663 7.93559 20.4543 7.5794 19.8095 7.29163L18.3323 6.64404L17.6087 3.33329H14.3945L13.6678 6.64563L12.1937 7.29163C11.8799 7.42945 11.5738 7.58432 11.2769 7.75554C10.963 7.93498 10.6596 8.13216 10.3681 8.34613L9.06818 9.29613L5.83818 8.26696L4.22793 11.06L6.73435 13.3415L6.55701 14.9455C6.47912 15.6463 6.47912 16.3536 6.55701 17.0545L6.73435 18.6568L4.22793 20.9415L5.83501 23.725L9.06501 22.6959ZM15.9937 22.3333C12.4959 22.3333 9.66035 19.4978 9.66035 16C9.66035 12.5022 12.4959 9.66663 15.9937 9.66663C19.4915 9.66663 22.327 12.5022 22.327 16C22.3227 19.496 19.4897 22.3289 15.9937 22.3333ZM15.9937 12.8333C14.2637 12.835 12.8553 14.2248 12.8305 15.9546C12.8058 17.6844 14.1737 19.1139 15.9029 19.1652C17.6321 19.2166 19.0825 17.8707 19.1603 16.1425V16.7758V16C19.1603 14.2511 17.7426 12.8333 15.9937 12.8333Z" fill="#F2F2F2"/>
</svg>
