<svg width="19" height="20" viewBox="0 0 19 20" fill="none" xmlns="http://www.w3.org/2000/svg">
<path d="M1.58317 19.1667C1.34006 19.1667 1.1069 19.0701 0.93499 18.8982C0.763081 18.7263 0.666504 18.4931 0.666504 18.25V1.75001C0.666504 1.5069 0.763081 1.27374 0.93499 1.10183C1.1069 0.929921 1.34006 0.833344 1.58317 0.833344H14.4165C14.6596 0.833344 14.8928 0.929921 15.0647 1.10183C15.2366 1.27374 15.3332 1.5069 15.3332 1.75001V4.50001H13.4998V2.66668H2.49984V17.3333H13.4998V15.5H15.3332V18.25C15.3332 18.4931 15.2366 18.7263 15.0647 18.8982C14.8928 19.0701 14.6596 19.1667 14.4165 19.1667H1.58317ZM13.4998 13.6667V10.9167H7.08317V9.08334H13.4998V6.33334L18.0832 10L13.4998 13.6667Z" fill="#EB5757"/>
</svg>
