<svg width="22" height="19" viewBox="0 0 22 19" fill="none" xmlns="http://www.w3.org/2000/svg">
<path d="M13.7498 0.833334C14.3936 0.833257 15.026 1.00267 15.5836 1.32454C16.1411 1.64641 16.604 2.1094 16.9259 2.66694C17.2477 3.22448 17.4171 3.85692 17.4169 4.50069C17.4168 5.14445 17.2472 5.77683 16.9252 6.33425L21.0832 6.33333V8.16667H19.2498V17.3333C19.2498 17.5765 19.1533 17.8096 18.9814 17.9815C18.8094 18.1534 18.5763 18.25 18.3332 18.25H3.6665C3.42339 18.25 3.19023 18.1534 3.01832 17.9815C2.84641 17.8096 2.74984 17.5765 2.74984 17.3333V8.16667H0.916504V6.33333L5.0745 6.33425C4.61971 5.54673 4.4738 4.6183 4.6651 3.72924C4.85641 2.84018 5.37127 2.05394 6.10973 1.52317C6.84818 0.99241 7.75752 0.755004 8.66119 0.857056C9.56485 0.959108 10.3984 1.39333 10.9998 2.07542C11.3432 1.68435 11.7662 1.37121 12.2405 1.15699C12.7148 0.942768 13.2294 0.832417 13.7498 0.833334ZM10.0832 8.16667H4.58317V16.4167H10.0832V8.16667ZM17.4165 8.16667H11.9165V16.4167H17.4165V8.16667ZM8.24984 2.66667C7.7741 2.66454 7.31617 2.84742 6.97278 3.17668C6.62939 3.50594 6.42744 3.95579 6.40959 4.4312C6.39174 4.9066 6.55939 5.37033 6.87712 5.72441C7.19485 6.07849 7.63778 6.2952 8.11234 6.32875L8.24984 6.33333H10.0832V4.5C10.0832 4.06189 9.92632 3.63826 9.64096 3.30582C9.35561 2.97338 8.96064 2.75412 8.52759 2.68775L8.38642 2.67125L8.24984 2.66667ZM13.7498 2.66667C13.2873 2.66652 12.8418 2.84121 12.5027 3.15571C12.1635 3.47021 11.9558 3.90128 11.9211 4.3625L11.9165 4.5V6.33333H13.7498C14.2124 6.33348 14.6579 6.1588 14.997 5.8443C15.3362 5.5298 15.5439 5.09873 15.5786 4.6375L15.5832 4.5C15.5832 4.01377 15.39 3.54746 15.0462 3.20364C14.7024 2.85982 14.2361 2.66667 13.7498 2.66667Z" fill="#F2C94C"/>
</svg>
