<svg width="18" height="20" viewBox="0 0 18 20" fill="none" xmlns="http://www.w3.org/2000/svg">
<path d="M17.25 6.33333V18.2436C17.2508 18.364 17.228 18.4833 17.1827 18.5949C17.1374 18.7064 17.0706 18.8079 16.9861 18.8937C16.9015 18.9794 16.801 19.0476 16.6901 19.0944C16.5792 19.1413 16.4601 19.1658 16.3398 19.1667H1.66025C1.419 19.1667 1.18761 19.0709 1.01693 18.9004C0.846251 18.7299 0.750243 18.4986 0.75 18.2573V1.74267C0.75 1.25042 1.16158 0.833332 1.6685 0.833332H11.7472L17.25 6.33333ZM15.4167 7.25H10.8333V2.66667H2.58333V17.3333H15.4167V7.25ZM5.33333 5.41667H8.08333V7.25H5.33333V5.41667ZM5.33333 9.08333H12.6667V10.9167H5.33333V9.08333ZM5.33333 12.75H12.6667V14.5833H5.33333V12.75Z" fill="#F2C94C"/>
</svg>
