<svg width="85" height="25" viewBox="0 0 85 25" fill="none" xmlns="http://www.w3.org/2000/svg">
<path d="M9.81547 18C9.3888 18 9.07547 17.78 8.87547 17.34L3.01547 3.94C2.8288 3.48667 2.8088 3.11333 2.95547 2.82C3.10213 2.52667 3.38213 2.38 3.79547 2.38C4.26213 2.38 4.58213 2.58667 4.75547 3L9.79547 15.08L14.9155 3C15.0221 2.76 15.1421 2.6 15.2755 2.52C15.4221 2.42667 15.6155 2.38 15.8555 2.38C16.2555 2.38 16.5288 2.52667 16.6755 2.82C16.8355 3.1 16.8355 3.41333 16.6755 3.76L10.7555 17.34C10.5821 17.78 10.2688 18 9.81547 18ZM25.1255 18.2C23.9521 18.2 22.8788 18.0067 21.9055 17.62C20.9321 17.22 20.0921 16.6667 19.3855 15.96C18.6921 15.24 18.1521 14.3933 17.7655 13.42C17.3788 12.4333 17.1855 11.3533 17.1855 10.18C17.1855 9.00667 17.3788 7.93333 17.7655 6.96C18.1521 5.98667 18.6921 5.14667 19.3855 4.44C20.0921 3.72 20.9321 3.16667 21.9055 2.78C22.8788 2.38 23.9521 2.18 25.1255 2.18C26.2988 2.18 27.3655 2.38 28.3255 2.78C29.2988 3.16667 30.1388 3.72 30.8455 4.44C31.5521 5.14667 32.0988 5.98667 32.4855 6.96C32.8721 7.93333 33.0655 9.00667 33.0655 10.18C33.0655 11.3533 32.8721 12.4333 32.4855 13.42C32.0988 14.3933 31.5521 15.24 30.8455 15.96C30.1388 16.6667 29.2988 17.22 28.3255 17.62C27.3655 18.0067 26.2988 18.2 25.1255 18.2ZM25.1255 16.32C26.2855 16.32 27.3121 16.0533 28.2055 15.52C29.0988 14.9733 29.7988 14.24 30.3055 13.32C30.8121 12.3867 31.0655 11.34 31.0655 10.18C31.0655 9.02 30.8121 7.98 30.3055 7.06C29.7988 6.12667 29.0988 5.39333 28.2055 4.86C27.3121 4.32667 26.2855 4.06 25.1255 4.06C23.9655 4.06 22.9388 4.32667 22.0455 4.86C21.1521 5.39333 20.4521 6.12667 19.9455 7.06C19.4388 7.98 19.1855 9.02 19.1855 10.18C19.1855 11.34 19.4388 12.3867 19.9455 13.32C20.4521 14.24 21.1521 14.9733 22.0455 15.52C22.9388 16.0533 23.9655 16.32 25.1255 16.32ZM42.6328 18.2C41.5528 18.2 40.5395 18 39.5928 17.6C38.6595 17.1867 37.8395 16.62 37.1328 15.9C36.4395 15.1667 35.8928 14.3133 35.4928 13.34C35.1061 12.3667 34.9128 11.3133 34.9128 10.18C34.9128 9.06 35.1061 8.02 35.4928 7.06C35.8928 6.08667 36.4395 5.24 37.1328 4.52C37.8395 3.78667 38.6595 3.21333 39.5928 2.8C40.5261 2.38667 41.5395 2.18 42.6328 2.18C43.6595 2.18 44.5395 2.31333 45.2728 2.58C46.0195 2.84667 46.7661 3.28667 47.5128 3.9C47.6728 4.03333 47.7795 4.16 47.8328 4.28C47.8861 4.4 47.9128 4.54667 47.9128 4.72C47.9128 4.97333 47.8195 5.18667 47.6328 5.36C47.4595 5.52 47.2461 5.61333 46.9928 5.64C46.7395 5.65333 46.4928 5.56667 46.2528 5.38C45.7595 4.95333 45.2461 4.62667 44.7128 4.4C44.1928 4.17333 43.4995 4.06 42.6328 4.06C41.8461 4.06 41.1061 4.22 40.4128 4.54C39.7195 4.86 39.1061 5.3 38.5728 5.86C38.0528 6.42 37.6461 7.07333 37.3528 7.82C37.0595 8.55333 36.9128 9.34 36.9128 10.18C36.9128 11.0333 37.0595 11.8333 37.3528 12.58C37.6461 13.3133 38.0528 13.96 38.5728 14.52C39.1061 15.08 39.7195 15.52 40.4128 15.84C41.1061 16.1467 41.8461 16.3 42.6328 16.3C43.3128 16.3 43.9528 16.1867 44.5528 15.96C45.1661 15.72 45.7528 15.3933 46.3128 14.98C46.5528 14.8067 46.7861 14.7333 47.0128 14.76C47.2528 14.7733 47.4528 14.8667 47.6128 15.04C47.7728 15.2 47.8528 15.4267 47.8528 15.72C47.8528 16 47.7461 16.2467 47.5328 16.46C46.0928 17.62 44.4595 18.2 42.6328 18.2ZM57.8797 18.2C56.7997 18.2 55.7864 18 54.8397 17.6C53.9064 17.1867 53.0864 16.62 52.3797 15.9C51.6864 15.1667 51.1397 14.3133 50.7397 13.34C50.353 12.3667 50.1597 11.3133 50.1597 10.18C50.1597 9.06 50.353 8.02 50.7397 7.06C51.1397 6.08667 51.6864 5.24 52.3797 4.52C53.0864 3.78667 53.9064 3.21333 54.8397 2.8C55.773 2.38667 56.7864 2.18 57.8797 2.18C58.9064 2.18 59.7864 2.31333 60.5197 2.58C61.2664 2.84667 62.013 3.28667 62.7597 3.9C62.9197 4.03333 63.0264 4.16 63.0797 4.28C63.133 4.4 63.1597 4.54667 63.1597 4.72C63.1597 4.97333 63.0664 5.18667 62.8797 5.36C62.7064 5.52 62.493 5.61333 62.2397 5.64C61.9864 5.65333 61.7397 5.56667 61.4997 5.38C61.0064 4.95333 60.493 4.62667 59.9597 4.4C59.4397 4.17333 58.7464 4.06 57.8797 4.06C57.093 4.06 56.353 4.22 55.6597 4.54C54.9664 4.86 54.353 5.3 53.8197 5.86C53.2997 6.42 52.893 7.07333 52.5997 7.82C52.3064 8.55333 52.1597 9.34 52.1597 10.18C52.1597 11.0333 52.3064 11.8333 52.5997 12.58C52.893 13.3133 53.2997 13.96 53.8197 14.52C54.353 15.08 54.9664 15.52 55.6597 15.84C56.353 16.1467 57.093 16.3 57.8797 16.3C58.5597 16.3 59.1997 16.1867 59.7997 15.96C60.413 15.72 60.9997 15.3933 61.5597 14.98C61.7997 14.8067 62.033 14.7333 62.2597 14.76C62.4997 14.7733 62.6997 14.8667 62.8597 15.04C63.0197 15.2 63.0997 15.4267 63.0997 15.72C63.0997 16 62.993 16.2467 62.7797 16.46C61.3397 17.62 59.7064 18.2 57.8797 18.2ZM73.3466 18.2C72.1732 18.2 71.0999 18.0067 70.1266 17.62C69.1532 17.22 68.3132 16.6667 67.6066 15.96C66.9132 15.24 66.3732 14.3933 65.9866 13.42C65.5999 12.4333 65.4066 11.3533 65.4066 10.18C65.4066 9.00667 65.5999 7.93333 65.9866 6.96C66.3732 5.98667 66.9132 5.14667 67.6066 4.44C68.3132 3.72 69.1532 3.16667 70.1266 2.78C71.0999 2.38 72.1732 2.18 73.3466 2.18C74.5199 2.18 75.5866 2.38 76.5466 2.78C77.5199 3.16667 78.3599 3.72 79.0666 4.44C79.7732 5.14667 80.3199 5.98667 80.7066 6.96C81.0932 7.93333 81.2866 9.00667 81.2866 10.18C81.2866 11.3533 81.0932 12.4333 80.7066 13.42C80.3199 14.3933 79.7732 15.24 79.0666 15.96C78.3599 16.6667 77.5199 17.22 76.5466 17.62C75.5866 18.0067 74.5199 18.2 73.3466 18.2ZM73.3466 16.32C74.5066 16.32 75.5332 16.0533 76.4266 15.52C77.3199 14.9733 78.0199 14.24 78.5266 13.32C79.0332 12.3867 79.2866 11.34 79.2866 10.18C79.2866 9.02 79.0332 7.98 78.5266 7.06C78.0199 6.12667 77.3199 5.39333 76.4266 4.86C75.5332 4.32667 74.5066 4.06 73.3466 4.06C72.1866 4.06 71.1599 4.32667 70.2666 4.86C69.3732 5.39333 68.6732 6.12667 68.1666 7.06C67.6599 7.98 67.4066 9.02 67.4066 10.18C67.4066 11.34 67.6599 12.3867 68.1666 13.32C68.6732 14.24 69.3732 14.9733 70.2666 15.52C71.1599 16.0533 72.1866 16.32 73.3466 16.32Z" fill="url(#paint0_linear)"/>
<g filter="url(#filter0_d)">
<circle cx="25" cy="10" r="7" fill="url(#paint1_linear)"/>
<circle cx="25" cy="10" r="6.5" stroke="black"/>
</g>
<defs>
<filter id="filter0_d" x="14" y="3" width="22" height="22" filterUnits="userSpaceOnUse" color-interpolation-filters="sRGB">
<feFlood flood-opacity="0" result="BackgroundImageFix"/>
<feColorMatrix in="SourceAlpha" type="matrix" values="0 0 0 0 0 0 0 0 0 0 0 0 0 0 0 0 0 0 127 0" result="hardAlpha"/>
<feOffset dy="4"/>
<feGaussianBlur stdDeviation="2"/>
<feComposite in2="hardAlpha" operator="out"/>
<feColorMatrix type="matrix" values="0 0 0 0 0 0 0 0 0 0 0 0 0 0 0 0 0 0 0.25 0"/>
<feBlend mode="normal" in2="BackgroundImageFix" result="effect1_dropShadow"/>
<feBlend mode="normal" in="SourceGraphic" in2="effect1_dropShadow" result="shape"/>
</filter>
<linearGradient id="paint0_linear" x1="42.5" y1="0" x2="42.5" y2="23" gradientUnits="userSpaceOnUse">
<stop stop-color="#12586D"/>
<stop offset="1" stop-color="#06A3A1"/>
</linearGradient>
<linearGradient id="paint1_linear" x1="25" y1="3" x2="25" y2="17" gradientUnits="userSpaceOnUse">
<stop stop-color="#217A94"/>
<stop offset="1" stop-color="#00C4C4"/>
</linearGradient>
</defs>
</svg>
