<svg width="17" height="21" viewBox="0 0 17 21" fill="none" xmlns="http://www.w3.org/2000/svg">
<path d="M8.50002 20.9167C7.34943 20.9167 6.41669 19.9839 6.41669 18.8333H10.5834C10.5834 19.9839 9.65061 20.9167 8.50002 20.9167ZM16.8334 17.7917H0.166687V15.7083L2.25002 14.6667V8.9375C2.19514 7.46784 2.52704 6.00951 3.21252 4.70834C3.89485 3.50158 5.06116 2.64467 6.41669 2.35417V0.0833367H10.2146C8.86084 1.59629 8.6349 3.80875 9.65491 5.56411C10.6749 7.31947 12.709 8.21869 14.6938 7.79167C14.7302 8.16355 14.7479 8.54896 14.7479 8.9375V14.6667L16.8313 15.7083V17.7917H16.8334ZM13.7084 6.33334C12.0518 6.33077 10.6851 5.03599 10.593 3.38201C10.501 1.72802 11.7156 0.289573 13.3616 0.103185C15.0076 -0.0832038 16.5131 1.04724 16.7932 2.67993C17.0733 4.31262 16.0307 5.88021 14.4167 6.25313C14.1844 6.30649 13.9467 6.3334 13.7084 6.33334Z" fill="#F2F2F2"/>
</svg>
