<svg width="31" height="30" viewBox="0 0 31 30" fill="none" xmlns="http://www.w3.org/2000/svg">
<circle opacity="0.72" cx="15.2263" cy="14.9814" r="14.961" fill="#141927"/>
<path d="M21.2108 14.9815C21.2108 14.794 21.1031 14.6369 20.95 14.5516L20.953 14.5466L11.0288 9.08983L11.0189 9.09482C10.9381 9.03796 10.8448 8.99707 10.7381 8.99707C10.4628 8.99707 10.2394 9.22049 10.2394 9.49577C10.2394 9.49627 10.2399 9.49677 10.2399 9.49777H10.2394V14.9815V20.4652H10.2399C10.2399 20.4662 10.2394 20.4667 10.2394 20.4672C10.2394 20.7425 10.4628 20.9659 10.7381 20.9659C10.8448 20.9659 10.9381 20.925 11.0193 20.8682L11.0288 20.8731L20.953 15.4164L20.95 15.4114C21.1031 15.3261 21.2108 15.169 21.2108 14.9815Z" fill="white"/>
</svg>
