<svg width="20" height="20" viewBox="0 0 20 20" fill="none" xmlns="http://www.w3.org/2000/svg">
<path d="M14.5835 4.49999H19.1668V6.33333H17.3335V18.25C17.3335 18.4931 17.2369 18.7263 17.065 18.8982C16.8931 19.0701 16.6599 19.1667 16.4168 19.1667H3.5835C3.34038 19.1667 3.10722 19.0701 2.93532 18.8982C2.76341 18.7263 2.66683 18.4931 2.66683 18.25V6.33333H0.833496V4.49999H5.41683V1.74999C5.41683 1.50688 5.51341 1.27372 5.68532 1.10181C5.85722 0.929905 6.09038 0.833328 6.3335 0.833328H13.6668C13.9099 0.833328 14.1431 0.929905 14.315 1.10181C14.4869 1.27372 14.5835 1.50688 14.5835 1.74999V4.49999ZM15.5002 6.33333H4.50016V17.3333H15.5002V6.33333ZM11.2963 11.8333L12.917 13.454L11.6208 14.7502L10.0002 13.1295L8.3795 14.7502L7.08333 13.454L8.704 11.8333L7.08333 10.2127L8.3795 8.9165L10.0002 10.5372L11.6208 8.9165L12.917 10.2127L11.2963 11.8333ZM7.25016 2.66666V4.49999H12.7502V2.66666H7.25016Z" fill="#F77272"/>
</svg>
