<svg width="88" height="88" viewBox="0 0 88 88" fill="none" xmlns="http://www.w3.org/2000/svg">
<g filter="url(#filter0_d)">
<rect x="8" y="3" width="72" height="72" rx="24" fill="white"/>
</g>
<path fill-rule="evenodd" clip-rule="evenodd" d="M24.5 37.5546C24.5 27.5828 33.2311 19.5 44 19.5C54.7689 19.5 63.5 27.5852 63.5 37.557C63.5 47.5288 54.7689 55.6116 44 55.6116C42.0549 55.6116 40.178 55.3459 38.4059 54.8559L31.7662 58.5V51.6141C27.3348 48.3039 24.5 43.2364 24.5 37.5546ZM40.9726 38.5174L45.9378 43.8141L56.597 32.4992L47.0298 37.7959L41.9428 32.4992L31.2836 43.8141L40.9726 38.5174Z" fill="url(#paint0_linear)"/>
<defs>
<filter id="filter0_d" x="0" y="0" width="88" height="88" filterUnits="userSpaceOnUse" color-interpolation-filters="sRGB">
<feFlood flood-opacity="0" result="BackgroundImageFix"/>
<feColorMatrix in="SourceAlpha" type="matrix" values="0 0 0 0 0 0 0 0 0 0 0 0 0 0 0 0 0 0 127 0" result="hardAlpha"/>
<feOffset dy="5"/>
<feGaussianBlur stdDeviation="4"/>
<feColorMatrix type="matrix" values="0 0 0 0 0.288021 0 0 0 0 0.609781 0 0 0 0 0.9875 0 0 0 0.1 0"/>
<feBlend mode="normal" in2="BackgroundImageFix" result="effect1_dropShadow"/>
<feBlend mode="normal" in="SourceGraphic" in2="effect1_dropShadow" result="shape"/>
</filter>
<linearGradient id="paint0_linear" x1="44" y1="19.5" x2="44" y2="58.5" gradientUnits="userSpaceOnUse">
<stop stop-color="#00B2FF"/>
<stop offset="1" stop-color="#006AFF"/>
</linearGradient>
</defs>
</svg>
