<svg width="88" height="88" viewBox="0 0 88 88" fill="none" xmlns="http://www.w3.org/2000/svg">
<g filter="url(#filter0_d)">
<rect x="8" y="3" width="72" height="72" rx="24" fill="white"/>
</g>
<path fill-rule="evenodd" clip-rule="evenodd" d="M43.9951 19.5H44.0049C54.7567 19.5 63.5 28.2482 63.5 39C63.5 49.7518 54.7567 58.5 44.0049 58.5C40.0391 58.5 36.3609 57.3203 33.2774 55.2776L25.7821 57.6737L28.2123 50.4294C25.8747 47.2192 24.5 43.2656 24.5 39C24.5 28.2457 33.2433 19.5 43.9951 19.5ZM51.5246 49.7883C53.0139 49.4666 54.881 48.3648 55.3514 47.0364C55.8219 45.7055 55.8219 44.5721 55.6854 44.3308C55.5752 44.1393 55.3145 44.0138 54.9255 43.8265C54.8242 43.7777 54.7142 43.7247 54.5958 43.6653C54.023 43.3801 51.237 42.0029 50.7105 41.8201C50.1937 41.6251 49.7013 41.6934 49.3113 42.2443C49.2371 42.3481 49.1631 42.4522 49.0895 42.5557C48.619 43.2174 48.1652 43.8557 47.7879 44.2625C47.4442 44.6281 46.8836 44.6744 46.4131 44.4794C46.3619 44.4581 46.3031 44.4343 46.2372 44.4077C45.4924 44.1069 43.8402 43.4396 41.8404 41.6593C40.1536 40.1578 39.008 38.2882 38.6765 37.7276C38.351 37.1652 38.6318 36.8354 38.8913 36.5306C38.8961 36.525 38.9009 36.5193 38.9056 36.5137C39.0729 36.3067 39.2353 36.1344 39.3984 35.9611C39.5158 35.8365 39.6336 35.7115 39.7539 35.5728C39.7718 35.5522 39.7891 35.5322 39.8061 35.5128C40.0616 35.219 40.2137 35.044 40.3852 34.6783C40.5802 34.3004 40.4413 33.9104 40.3023 33.6228C40.2067 33.4214 39.6162 31.9885 39.1092 30.7586C38.8923 30.2323 38.6907 29.7432 38.5498 29.4035C38.172 28.4992 37.8843 28.4651 37.3115 28.4407C37.294 28.4398 37.2762 28.4389 37.2583 28.438C37.0772 28.4288 36.8778 28.4188 36.6583 28.4188C35.9124 28.4188 35.1348 28.6381 34.6644 29.1183C34.648 29.1351 34.6308 29.1525 34.613 29.1706C34.0112 29.7827 32.6705 31.1462 32.6705 33.8641C32.6705 36.5873 34.6027 39.2228 34.9602 39.7104C34.9701 39.7239 34.9788 39.7357 34.9861 39.7458C35.0077 39.7741 35.0482 39.8328 35.1072 39.9182C35.8372 40.9754 39.3927 46.1244 44.6947 48.3209C49.1748 50.1783 50.5057 50.0053 51.5246 49.7883Z" fill="url(#paint0_linear)"/>
<defs>
<filter id="filter0_d" x="0" y="0" width="88" height="88" filterUnits="userSpaceOnUse" color-interpolation-filters="sRGB">
<feFlood flood-opacity="0" result="BackgroundImageFix"/>
<feColorMatrix in="SourceAlpha" type="matrix" values="0 0 0 0 0 0 0 0 0 0 0 0 0 0 0 0 0 0 127 0" result="hardAlpha"/>
<feOffset dy="5"/>
<feGaussianBlur stdDeviation="4"/>
<feColorMatrix type="matrix" values="0 0 0 0 0.288021 0 0 0 0 0.609781 0 0 0 0 0.9875 0 0 0 0.1 0"/>
<feBlend mode="normal" in2="BackgroundImageFix" result="effect1_dropShadow"/>
<feBlend mode="normal" in="SourceGraphic" in2="effect1_dropShadow" result="shape"/>
</filter>
<linearGradient id="paint0_linear" x1="44" y1="19.5" x2="44" y2="58.5" gradientUnits="userSpaceOnUse">
<stop stop-color="#25D366"/>
<stop offset="1" stop-color="#1FBA62"/>
</linearGradient>
</defs>
</svg>
